HIERARCHY
ROOT Hips
{
	OFFSET -14.64140 90.27770 -84.91600
	CHANNELS 6 Xposition Yposition Zposition Zrotation Xrotation Yrotation
	JOINT Spine
	{
		OFFSET 0.00000 13.20850 -1.60436
		CHANNELS 3 Zrotation Xrotation Yrotation
		JOINT Spine1
		{
			OFFSET 0.00000 8.61716 0.00000
			CHANNELS 3 Zrotation Xrotation Yrotation
			JOINT Spine2
			{
				OFFSET 0.00000 8.61717 0.00000
				CHANNELS 3 Zrotation Xrotation Yrotation
				JOINT Spine3
				{
					OFFSET 0.00000 8.61717 0.00000
					CHANNELS 3 Zrotation Xrotation Yrotation
					JOINT Neck
					{
						OFFSET 0.00000 11.07920 1.10792
						CHANNELS 3 Zrotation Xrotation Yrotation
						JOINT Neck1
						{
							OFFSET 0.00000 7.08032 0.00000
							CHANNELS 3 Zrotation Xrotation Yrotation
							JOINT Head
							{
								OFFSET 0.00000 7.08031 0.00000
								CHANNELS 3 Zrotation Xrotation Yrotation
								End site
								{
									OFFSET 0.00000 0.00000 0.00000
								}
							}
						}
					}
					JOINT RightShoulder
					{
						OFFSET -0.01000 7.91373 5.19711
						CHANNELS 3 Zrotation Xrotation Yrotation
						JOINT RightArm
						{
							OFFSET -18.41580 0.00000 0.00000
							CHANNELS 3 Zrotation Xrotation Yrotation
							JOINT RightForeArm
							{
								OFFSET -29.11090 0.00000 0.00000
								CHANNELS 3 Zrotation Xrotation Yrotation
								JOINT RightHand
								{
									OFFSET -24.65040 0.00000 0.00000
									CHANNELS 3 Zrotation Xrotation Yrotation
									JOINT RightHandThumb1
									{
										OFFSET -5.35114 -0.85590 3.97906
										CHANNELS 3 Zrotation Xrotation Yrotation
										JOINT RightHandThumb2
										{
											OFFSET -4.52789 0.00000 0.00000
											CHANNELS 3 Zrotation Xrotation Yrotation
											JOINT RightHandThumb3
											{
												OFFSET -2.46976 0.00000 0.00000
												CHANNELS 3 Zrotation Xrotation Yrotation
												End site
												{
													OFFSET 0.00000 0.00000 0.00000
												}
											}
										}
									}
									JOINT RightHandIndex1
									{
										OFFSET -14.26970 0.00000 2.88139
										CHANNELS 3 Zrotation Xrotation Yrotation
										JOINT RightHandIndex2
										{
											OFFSET -5.48836 0.00000 0.00000
											CHANNELS 3 Zrotation Xrotation Yrotation
											JOINT RightHandIndex3
											{
												OFFSET -3.01859 0.00000 0.00000
												CHANNELS 3 Zrotation Xrotation Yrotation
												End site
												{
													OFFSET 0.00000 0.00000 0.00000
												}
											}
										}
									}
									JOINT RightHandMiddle1
									{
										OFFSET -14.26970 0.00000 -0.09147
										CHANNELS 3 Zrotation Xrotation Yrotation
										JOINT RightHandMiddle2
										{
											OFFSET -6.17441 0.00000 0.00000
											CHANNELS 3 Zrotation Xrotation Yrotation
											JOINT RightHandMiddle3
											{
												OFFSET -3.56743 0.00000 0.00000
												CHANNELS 3 Zrotation Xrotation Yrotation
												End site
												{
													OFFSET 0.00000 0.00000 0.00000
												}
											}
										}
									}
									JOINT RightHandRing1
									{
										OFFSET -12.69180 0.00000 -3.06433
										CHANNELS 3 Zrotation Xrotation Yrotation
										JOINT RightHandRing2
										{
											OFFSET -5.62556 0.00000 0.00000
											CHANNELS 3 Zrotation Xrotation Yrotation
											JOINT RightHandRing3
											{
												OFFSET -3.56744 0.00000 0.00000
												CHANNELS 3 Zrotation Xrotation Yrotation
												End site
												{
													OFFSET 0.00000 0.00000 0.00000
												}
											}
										}
									}
									JOINT RightHandPinky1
									{
										OFFSET -11.11390 0.00000 -6.03719
										CHANNELS 3 Zrotation Xrotation Yrotation
										JOINT RightHandPinky2
										{
											OFFSET -4.52789 0.00000 0.00000
											CHANNELS 3 Zrotation Xrotation Yrotation
											JOINT RightHandPinky3
											{
												OFFSET -2.46976 0.00000 0.00000
												CHANNELS 3 Zrotation Xrotation Yrotation
												End site
												{
													OFFSET 0.00000 0.00000 0.00000
												}
											}
										}
									}
								}
							}
						}
					}
					JOINT LeftShoulder
					{
						OFFSET 0.01000 7.91373 5.19711
						CHANNELS 3 Zrotation Xrotation Yrotation
						JOINT LeftArm
						{
							OFFSET 18.41580 0.00000 0.00000
							CHANNELS 3 Zrotation Xrotation Yrotation
							JOINT LeftForeArm
							{
								OFFSET 29.11090 0.00000 0.00000
								CHANNELS 3 Zrotation Xrotation Yrotation
								JOINT LeftHand
								{
									OFFSET 24.65040 0.00000 0.00000
									CHANNELS 3 Zrotation Xrotation Yrotation
									JOINT LeftHandThumb1
									{
										OFFSET 5.35114 -0.85590 3.97906
										CHANNELS 3 Zrotation Xrotation Yrotation
										JOINT LeftHandThumb2
										{
											OFFSET 4.52789 0.00000 0.00000
											CHANNELS 3 Zrotation Xrotation Yrotation
											JOINT LeftHandThumb3
											{
												OFFSET 2.46977 0.00000 0.00000
												CHANNELS 3 Zrotation Xrotation Yrotation
												End site
												{
													OFFSET 0.00000 0.00000 0.00000
												}
											}
										}
									}
									JOINT LeftHandIndex1
									{
										OFFSET 14.26970 0.00000 2.88139
										CHANNELS 3 Zrotation Xrotation Yrotation
										JOINT LeftHandIndex2
										{
											OFFSET 5.48836 0.00000 0.00000
											CHANNELS 3 Zrotation Xrotation Yrotation
											JOINT LeftHandIndex3
											{
												OFFSET 3.01859 0.00000 0.00000
												CHANNELS 3 Zrotation Xrotation Yrotation
												End site
												{
													OFFSET 0.00000 0.00000 0.00000
												}
											}
										}
									}
									JOINT LeftHandMiddle1
									{
										OFFSET 14.26970 0.00000 -0.09147
										CHANNELS 3 Zrotation Xrotation Yrotation
										JOINT LeftHandMiddle2
										{
											OFFSET 6.17440 0.00000 0.00000
											CHANNELS 3 Zrotation Xrotation Yrotation
											JOINT LeftHandMiddle3
											{
												OFFSET 3.56744 0.00000 0.00000
												CHANNELS 3 Zrotation Xrotation Yrotation
												End site
												{
													OFFSET 0.00000 0.00000 0.00000
												}
											}
										}
									}
									JOINT LeftHandRing1
									{
										OFFSET 12.69180 0.00000 -3.06433
										CHANNELS 3 Zrotation Xrotation Yrotation
										JOINT LeftHandRing2
										{
											OFFSET 5.62556 0.00000 0.00000
											CHANNELS 3 Zrotation Xrotation Yrotation
											JOINT LeftHandRing3
											{
												OFFSET 3.56744 0.00000 0.00000
												CHANNELS 3 Zrotation Xrotation Yrotation
												End site
												{
													OFFSET 0.00000 0.00000 0.00000
												}
											}
										}
									}
									JOINT LeftHandPinky1
									{
										OFFSET 11.11390 0.00000 -6.03719
										CHANNELS 3 Zrotation Xrotation Yrotation
										JOINT LeftHandPinky2
										{
											OFFSET 4.52789 0.00000 0.00000
											CHANNELS 3 Zrotation Xrotation Yrotation
											JOINT LeftHandPinky3
											{
												OFFSET 2.46976 0.00000 0.00000
												CHANNELS 3 Zrotation Xrotation Yrotation
												End site
												{
													OFFSET 0.00000 0.00000 0.00000
												}
											}
										}
									}
								}
							}
						}
					}
					JOINT pCube4
					{
						OFFSET 0.00000 10.91090 1.10792
						CHANNELS 3 Zrotation Xrotation Yrotation
						End site
						{
							OFFSET 0.00000 0.00000 0.00000
						}
					}
				}
			}
		}
	}
	JOINT RightUpLeg
	{
		OFFSET -9.98441 0.00000 0.00000
		CHANNELS 3 Zrotation Xrotation Yrotation
		JOINT RightLeg
		{
			OFFSET 0.00000 -42.11790 0.00000
			CHANNELS 3 Zrotation Xrotation Yrotation
			JOINT RightFoot
			{
				OFFSET 0.00000 -45.00020 -0.00001
				CHANNELS 3 Zrotation Xrotation Yrotation
				JOINT RightForeFoot
				{
					OFFSET 0.00000 -3.74820 0.00000
					CHANNELS 3 Zrotation Xrotation Yrotation
					JOINT RightToeBase
					{
						OFFSET 0.00000 0.06325 14.43120
						CHANNELS 3 Zrotation Xrotation Yrotation
						End site
						{
							OFFSET 0.00000 0.00000 0.00000
						}
					}
				}
			}
		}
	}
	JOINT LeftUpLeg
	{
		OFFSET 9.98441 0.00000 0.00000
		CHANNELS 3 Zrotation Xrotation Yrotation
		JOINT LeftLeg
		{
			OFFSET 0.00000 -42.11800 0.00000
			CHANNELS 3 Zrotation Xrotation Yrotation
			JOINT LeftFoot
			{
				OFFSET 0.00000 -45.00070 0.00000
				CHANNELS 3 Zrotation Xrotation Yrotation
				JOINT LeftForeFoot
				{
					OFFSET 0.00000 -3.74824 0.00000
					CHANNELS 3 Zrotation Xrotation Yrotation
					JOINT LeftToeBase
					{
						OFFSET 0.00000 0.06325 14.43110
						CHANNELS 3 Zrotation Xrotation Yrotation
						End site
						{
							OFFSET 0.00000 0.00000 0.00000
						}
					}
				}
			}
		}
	}
}
MOTION
Frames: 4
Frame Time: 0.050000
0.018464364362055834 0.042366830472693906 -0.041402673524596506 0.04730679759416498 -0.023065725336635246 0.031198793413501364 5.979016196285177 5.204813233426576 -2.324315785454527 -0.7156340625962893 3.6199442220501115 0.31794975716454693 -0.3061779382656321 -0.9386467955941857 -0.21738746339197215 -1.2232231413854688 -0.4638774972754802 -0.30827718724047426 -1.4184884479199313 13.153524980356561 2.468786548622348 0.2899806709214747 -1.1927228581410565 8.052306948867399 -0.4211512647612406 -18.36637008738759 0.6124651263957621 -10.777883299032702 3.9330506068485644 -18.314813026298445 85.14102437791698 -8.401379258543495 -0.22824172352615635 28.180276066326556 6.073690771532788 82.63031008041064 9.146098434376153 -0.48644380231479156 -4.599993777585299 4.567366188415193 -0.07900583323001849 -1.6405022118702934 0.01206720377307849 -0.027295121621062526 -56.251543113288704 0.032897294812946454 -0.006719510435096349 -56.25005090044408 -38.78828145488017 0.0458171741715815 -0.02279540187957612 -0.0017689991373784101 -0.03886241374136074 -0.015781213555654264 0.016341242310114773 -0.000286939811673725 -0.0107831963211423 -36.689105062258086 0.005341502214426406 0.03979448420992847 -0.034735723269546624 -0.006962464947853986 0.00658287574898764 0.048381160845166235 0.018689725030303084 -0.0019293415433832345 -19.710282591686124 0.02467426574584432 -0.03646041827152239 0.030327367510671686 0.0014255859899942544 0.026387634007648732 -0.006487906811113251 0.018920302745100426 -0.01616955779994719 24.102569114670295 -0.0022672873794713573 -0.03885575926224287 28.817579138422 0.012137801441696931 0.010463992557647864 28.816950773464875 -0.01122615393396558 -0.012074577750713729 13.71849008659332 3.1148959066860424 14.83210662514371 -77.54548135241981 12.779789970361689 -19.892960662928264 -28.366963890808783 15.68332764878673 -70.35331382986185 -24.57087224133363 -4.112330832376861 3.3770679636365792 -0.4463963866174651 0.11311541960493957 -8.115628571423963 0.0060037013575632205 -0.007960301802579785 44.562176728226866 0.009058699720927505 0.005143832568358287 44.53964866199949 12.439131233401367 0.00045283476041787726 -0.045289498009258966 0.04403611677152537 0.010469341354544784 0.002605341769467378 0.025650086018762324 0.006064532782064889 0.009084160524889872 11.12470165415008 -0.042172275959179155 -0.006098084497848394 -0.004800831743829303 -0.010205227760365945 -0.018466378668198717 -0.011061329588902187 0.04563166097696409 0.035133249701119786 4.788859886928042 -0.04416174643977011 0.003706184654195314 0.024391480146137106 -0.038345732534482126 0.033377232139019185 -0.02948098026687623 0.04843979951678535 -0.041323303862119944 -5.628540330201658 -0.004440856547739567 -0.020789360401044985 -6.740701550665561 0.018028806966154824 0.02658848899307553 -6.749894214441362 0.008520171193044875 -0.03633263107388517 -0.016649315922991133 0.02688803649125571 0.038581601217536475 8.029828195102521 3.5396145759086277 -19.20557403154326 0.010711507626060109 10.426907610277949 0.06407493550584445 -5.615397088568033 -15.663187557880843 3.2013182786242935 -0.002706998790718577 0.036507579977997966 -0.004625065180929394 0.03400986144575248 4.6977961758220435 -0.040930657060858106 12.468301153960404 -8.228998132195843 6.926491544965392 -0.004836989730451446 46.39433529655704 -0.023852727908339554 -4.347592373312644 -14.729834051330686 -3.8530257837451374 0.022736043635195814 0.03377801510160882 -0.016148172443207896 -0.0012322075493647856 -10.70109585890816 0.019083943915980506 
-0.022424234191752632 0.01280459032999737 -0.04481750371209129 0.032908789430069744 0.03434038250029094 0.0032272559151894373 5.821408199905654 5.210518023523098 -2.26376075089594 -0.7438984082710125 3.607645465018849 0.37103572608713986 -0.30554215854010236 -0.8708991866694278 -0.2787173548974686 -1.1854422180847535 -0.4782203136440296 -0.29712231386754073 -1.30529303955443 12.903297658374981 2.242141093598103 0.2091001307913475 -1.2266495267238902 7.352881508977997 -0.30893630014900425 -18.33247547261926 0.575888493512376 -10.497833975104387 3.8267676698924116 -18.22021641101338 85.17216571639683 -7.896054714707994 -0.9566360061748236 27.8459680011989 7.000188930080677 81.57098205370973 8.817161979085782 -0.43769261016039285 -4.453401033292698 4.499664940763745 -0.1654210261926265 -1.5648234796272567 -0.04240134235280758 -0.0019438317692668686 -56.220901530797015 -0.01827528500588042 -0.049427358551571626 -56.262846960400246 -38.76966214895683 0.020812652095545777 0.0423164815733683 -0.02390423149305479 -0.02501859978331599 0.019574026551719078 -0.025063569670183687 -0.03333632667257954 0.0026637548661790156 -36.70472030297525 -0.041603115398535104 0.022874236790788104 0.04420676047599292 0.018415475576257237 -0.012325287674195672 -0.03010253794904226 0.016818201416058193 -0.012745416645021742 -19.7392302317144 0.020536743596908418 -0.013175043522385962 0.025463843985307353 -0.03362627978487366 -0.004948022593937551 -0.027155281621182817 -0.0339627550939967 -0.021235023162927386 24.089663046843448 -0.040869136950915076 0.04549510324986299 28.914281229427917 0.024140934098402914 -0.031124499000848627 28.850693374564404 0.0016326278902222425 0.007475528910473713 13.294515808427018 3.061302836634938 14.644507279341067 -77.20817588270843 13.946045911110193 -19.341745713037067 -26.088968545533085 16.6849070591021 -68.37940013429159 -24.709303871779976 -4.11524695499647 3.5178514719260567 -0.45367002626777364 0.07425549624845529 -8.083097010618074 -0.022848575592776508 0.04264399080532755 44.610262575814275 0.021241305400269517 -0.010682065039651863 44.57530368814788 12.436035440049345 -0.01927965888789222 0.010135056408489765 -0.008020706292220415 -0.007515607763182497 0.016114430592451278 0.026113130038534473 0.04450783715515364 0.039289193464925126 11.153178957473425 -0.033584000615662205 0.020277391424793373 -0.0029226187228070673 -0.002123569264136375 0.002072500654059901 -0.028479980033268206 0.006839005204268789 0.010609614564790782 4.776626113967626 -0.043986754937619214 0.01770580686594942 0.032182439774054494 0.0434317811295554 -0.038517717874979165 -0.03280052473676831 0.027221799077577533 -0.0466301169527237 -5.634888528209536 0.005711266216943615 0.004224534945502477 -6.702036994617214 0.023902065937345018 -0.009415276217175807 -6.749563518781939 0.028090738764290954 0.023639656280558252 -0.00714054084138858 0.04680821912038829 -0.032137045494788664 7.997565964884063 3.4734663675816835 -19.223070084481144 0.03285131919187076 10.388404510507309 0.017712884270114103 -5.6289086256996645 -15.6403991950916 3.1465389525544167 -0.001498048068192218 -0.02893104179215533 -0.013280420583614143 -0.023888277125010755 4.676671366493139 -0.008767256281026564 12.443903621645656 -8.191834607461765 6.862496585737806 -0.04567192624890784 46.340152610646236 -0.020897060638988642 -4.282972451244651 -14.73054969679593 -3.8473493261690335 0.006064926364613242 -0.02657217301137917 0.02565139681890351 0.029117371737468492 -10.7549447684156 0.02181214918920227 
0.04427146577616654 0.034522170810398684 -0.0011149016104937148 0.022295406712834212 0.01563565358156983 -0.0011570115146160287 5.4784069810497105 5.249838711267204 -2.207480746650604 -0.7529447192805784 3.5857486299568544 0.3904831588165971 -0.38659861518143146 -0.8212645624159685 -0.35640782375320207 -1.1760814047549517 -0.4839520731306838 -0.36926813892786203 -1.2437731979015272 12.676498264336944 1.9467633942685267 0.20137437740982306 -1.2666887151849806 6.596639754200825 -0.24127741654775195 -18.40152000273338 0.5395557567985142 -10.142301437513053 3.777874873810562 -18.062506820605847 85.04750409576121 -7.117980036905138 -1.6534769454122833 26.595980308336685 8.276821315867231 80.2767309094116 8.57817093568261 -0.4409229870762282 -4.30724841587191 4.489042139517025 -0.11327706358696374 -1.565894568733736 -0.049924266437118676 -0.02548082996201106 -56.190872601676446 0.013857805651180497 -0.018601096903985537 -56.21524878544947 -38.78913631129231 -0.04771009919851403 -0.02635799927685849 0.016367590618722724 0.013645059446600995 -0.016579764081825273 0.02801042374910115 -0.02768087356308824 -0.020049221775109302 -36.65372550440632 -0.017327220922380097 -0.04522240220189888 -0.026062098733574145 -0.036258840290071565 0.01193415282403011 -0.005464519835568329 0.012319793587841866 0.036342234409034134 -19.783371952701415 -0.04903031447404097 -0.0075171949905272935 0.017442326305060957 0.034493313610526946 0.008431193835960023 0.0455579630499615 -0.01720164867545636 -0.021935754616879435 24.044771467264805 0.043160664747284305 -0.0423149174906217 28.81585711659832 0.013952156986411788 0.04322561625200473 28.886916292753696 0.01933021567552209 -0.022120327732877795 12.707514568435125 2.95080055040699 14.464953085536914 -76.6160862099887 14.940484224168896 -18.471384757698925 -22.529970551908914 17.533991467661245 -65.07653700016571 -24.666014309530393 -3.929058078213424 3.632633313890132 -0.4960359232330248 0.04417397352934086 -8.099160231385675 0.03575951123340617 -0.04443341534374811 44.53936831693125 0.049168620213548314 -0.03922351473766359 44.52691376027404 12.43706942048026 0.007384329064856526 -0.03327172994281547 0.020916256090097375 -0.027021042587851738 -0.015029293202930302 -0.0064816150572870965 0.043858995687990926 0.009394171212775401 11.135589525235089 -0.025778787128426822 -0.0005214621801457151 -0.011405729755409719 0.027503237842302224 -0.016033315373371184 -0.006682730530174991 0.022520299746747022 -0.01349879756956736 4.7261355616296985 0.022020401264649755 -0.03945726752809248 -0.04455084714396186 0.014074430890580601 -0.007400908278758441 0.033277560036673634 0.048882733169518536 0.03314630556144598 -5.605842472211215 0.04034292424953777 -0.003949139257593429 -6.741314573821134 0.02529253144429499 -0.01857252227516854 -6.707491838065528 -0.00516896885612506 0.04341945000917842 -0.00910584919289315 0.034665984858600084 0.017837851421913433 8.066580798155051 3.4586383129830303 -19.229895329525764 0.029994157498105974 10.362500105145783 0.05578427276680639 -5.665459993519591 -15.630104168956606 3.2091091731431796 0.046033064483278964 0.0046704712249577614 -0.014726796849437316 0.036061098181258196 4.726548714881492 -0.028235823361212182 12.45478670928219 -8.224534570563657 6.879820553886197 -0.013373299764314324 46.35101728530207 0.01020764247209594 -4.342923722341215 -14.744624302258027 -3.8336530835692555 0.04272443226339295 0.022467200165401022 0.008431917035364724 0.012303879969959014 -10.735673103455287 0.04552441340807223 
-0.002063530061504091 0.04919879465186702 0.04753062583401213 0.045907140101204266 -0.0163807855636528 0.0360467524281726 5.170554104906273 5.343330560486228 -2.1575828840095745 -0.7562466712291476 3.600435216257238 0.3872722703627151 -0.3637718128656105 -0.7972384531039635 -0.305019403086388 -1.1430611870017504 -0.3639236572735648 -0.3847824995562261 -1.1549046607991291 12.415614386542874 1.7273614986068293 0.20950716031821892 -1.2919002885547528 5.915602077580209 -0.19551741233841904 -18.42932465587984 0.4890995303734563 -9.834660764015766 3.6814704866030064 -17.893664744243825 84.82538351883338 -5.899004277429945 -2.3492985102010353 24.023619574097026 9.79715957576499 77.89940290204845 8.518096953634528 -0.42611870633488547 -4.024657589924065 4.51433276264222 -0.11678026886924481 -1.5771230902025548 0.03556271384939435 0.010299033837849412 -56.185893144709354 0.03512234313116465 -0.035226589335425156 -56.25790557471684 -38.738538164164645 0.015268289498913564 0.0367180942038364 -0.021574263778880175 0.01791782844630664 -0.026297676605625875 -0.03672178716546976 -0.04548437246528456 -0.03291164421431073 -36.6536268113919 -0.02867196773168882 0.002185160086214954 -0.049082137308136965 -0.026363132126750663 0.004557857848012594 8.649171319781313e-05 -0.012474890774384548 0.03947658262874526 -19.72966908793218 -0.02862506226355407 -0.028223730201710488 -0.015204903586380589 0.013281669272303892 -0.02762651010022168 0.03270405582549918 -0.021876146686787033 -0.025864276733569763 24.099966345793668 -0.035665781149297936 -0.01652325870498369 28.81802869161562 -0.03582800707548166 -0.006691459884420738 28.835439616405182 0.0376759144784846 0.0076851242650028745 12.263316867414664 2.9002817337492672 14.40959281832319 -75.7662443976781 15.813472836667211 -17.74605901753126 -18.370824408947946 18.708541078840717 -61.54430325146265 -24.620010541853905 -3.732264035772187 3.8074834748064155 -0.5046496458565001 0.027170756435552695 -8.105842187221441 -0.017044052639791696 -0.0060183893731291325 44.552036646989414 -0.04416575637955059 0.048571573957851014 44.527597824466035 12.429860888762255 -0.048870300235792634 0.03840541203930151 0.012207225792302946 0.0020308122286743736 0.03538198881455977 0.004231090294045007 0.03260430598620994 0.0015224748528756265 11.123430833843772 0.01266666268348125 -0.04070928883532662 -0.001589896312365552 -0.027158061991242963 -0.013263546984656906 0.04365931895999144 0.025053355526743842 -0.03409236251723335 4.757152423480419 0.0071285856685149975 -0.03396759516055322 0.03675548539433231 0.013314539753145322 -0.019494104795941276 -0.02680839728239852 -0.017955472001901833 -0.025093369068123095 -5.571051577911106 -0.030268857479161203 0.041125055524649116 -6.702163938225429 0.014064308129706037 -0.04105192861955469 -6.753707252633284 -0.0015469325374190223 0.020783414328260873 -0.0158709310055356 0.012007652801946036 -0.02712560702622147 8.002968759313422 3.4672191510607386 -19.227540965838603 -0.009389831756271044 10.413556043812305 -0.0006696932795916769 -5.622991445715515 -15.650615042518986 3.186021356310401 0.04033489119933743 -0.004602247805835675 0.0321734684419555 -0.04955114353457212 4.672059775870549 0.04137046888535175 12.461541957946714 -8.267090399738471 6.870393857804032 0.00785313747861549 46.386225090383334 -0.012382343790654591 -4.310810896328409 -14.739924221837352 -3.8026996737909564 0.031098172443917518 -0.016433080826922464 0.005555448160753759 0.0006758560426967417 -10.70186183747389 0.013138096588276266 
